<svg width="563" height="394" viewBox="0 0 563 394" fill="none" xmlns="http://www.w3.org/2000/svg">
<rect x="45.525" y="384.271" width="124.825" height="8.91606" fill="#B8A590"/>
<rect x="170.347" y="375.354" width="115.909" height="8.91606" fill="#B8A590"/>
<rect x="286.256" y="384.271" width="124.825" height="8.91606" fill="#B8A590"/>
<rect x="411.081" y="375.354" width="44.5803" height="8.91606" fill="#B8A590"/>
<rect x="455.659" y="384.271" width="80.2445" height="8.91606" fill="#B8A590"/>
<rect width="8.91606" height="213.985" transform="matrix(-1 0 0 1 18.7748 54.3785)" fill="#B8A590"/>
<rect x="18.7748" y="268.365" width="8.91606" height="106.993" fill="#B8A590"/>
<rect x="535.907" y="321.86" width="8.91606" height="62.4124" fill="#B8A590"/>
<rect x="544.824" y="143.54" width="8.91606" height="178.321" fill="#B8A590"/>
<rect x="535.907" y="116.793" width="8.91606" height="26.7482" fill="#B8A590"/>
<rect x="526.99" y="90.0424" width="8.91606" height="26.7482" fill="#B8A590"/>
<rect x="535.907" y="81.1257" width="17.8321" height="8.91606" fill="#B8A590"/>
<rect x="553.737" y="27.6282" width="8.91606" height="53.4963" fill="#B8A590"/>
<rect x="544.824" y="18.7145" width="8.91606" height="8.91606" fill="#B8A590"/>
<rect x="393.248" y="9.79775" width="151.573" height="8.91606" fill="#B8A590"/>
<rect x="330.837" y="18.7145" width="62.4124" height="8.91606" fill="#B8A590"/>
<rect x="81.186" y="9.79775" width="249.65" height="8.91606" fill="#B8A590"/>
<rect x="54.4388" y="18.7145" width="26.7482" height="8.91606" fill="#B8A590"/>
<rect x="45.525" y="27.6282" width="8.91606" height="17.8321" fill="#B8A590"/>
<rect x="18.7748" y="45.4617" width="26.7482" height="8.91606" fill="#B8A590"/>
<rect x="27.6885" y="375.354" width="17.8321" height="8.91606" fill="#B8A590"/>
<rect x="81.186" y="18.7145" width="249.65" height="356.642" fill="#B8A590"/>
<rect x="54.4388" y="27.6282" width="26.7482" height="347.726" fill="#B8A590"/>
<rect x="27.6885" y="54.3785" width="26.7482" height="213.985" fill="#B8A590"/>
<rect x="18.7748" y="54.3785" width="8.91606" height="213.985" fill="#B8A590"/>
<rect x="535.907" y="143.54" width="8.91606" height="178.321" fill="#B8A590"/>
<rect x="535.907" y="27.6282" width="17.8321" height="53.4963" fill="#B8A590"/>
<rect x="27.6885" y="268.365" width="26.7482" height="106.993" fill="#B8A590"/>
<rect x="45.525" y="375.354" width="124.825" height="8.91606" fill="#B8A590"/>
<rect x="286.256" y="375.354" width="124.825" height="8.91606" fill="#B8A590"/>
<rect x="455.659" y="143.54" width="80.2445" height="240.733" fill="#B8A590"/>
<rect x="330.837" y="27.6282" width="124.825" height="347.726" fill="#B8A590"/>
<rect x="393.248" y="18.7145" width="151.573" height="8.91606" fill="#B8A590"/>
<rect x="526.99" y="116.793" width="8.91606" height="26.7482" fill="#B8A590"/>
<rect x="526.99" y="27.6282" width="8.91606" height="62.4124" fill="#B8A590"/>
<rect x="455.659" y="27.6282" width="71.3284" height="115.909" fill="#B8A590"/>
<rect x="36.61" y="375.351" width="124.825" height="8.91606" fill="#DCC7AF"/>
<rect x="161.432" y="366.434" width="115.909" height="8.91606" fill="#DCC7AF"/>
<rect x="286.258" y="375.351" width="115.909" height="8.91606" fill="#DCC7AF"/>
<rect x="402.166" y="366.434" width="44.5803" height="8.91606" fill="#DCC7AF"/>
<rect x="455.661" y="375.351" width="71.3284" height="8.91606" fill="#DCC7AF"/>
<rect width="8.91606" height="213.985" transform="matrix(-1 0 0 1 9.85974 45.4582)" fill="#DCC7AF"/>
<rect x="9.85974" y="259.445" width="8.91606" height="106.993" fill="#DCC7AF"/>
<rect x="526.989" y="312.94" width="8.91606" height="62.4124" fill="#DCC7AF"/>
<rect x="535.909" y="134.62" width="8.91606" height="178.321" fill="#DCC7AF"/>
<rect x="526.989" y="107.872" width="8.91606" height="26.7482" fill="#DCC7AF"/>
<rect x="518.075" y="81.1222" width="8.91606" height="26.7482" fill="#DCC7AF"/>
<rect x="526.989" y="72.2054" width="17.8321" height="8.91606" fill="#DCC7AF"/>
<rect x="544.822" y="18.708" width="8.91606" height="53.4963" fill="#DCC7AF"/>
<rect x="535.909" y="9.79425" width="8.91606" height="8.91606" fill="#DCC7AF"/>
<rect x="384.333" y="0.877518" width="151.573" height="8.91606" fill="#DCC7AF"/>
<rect x="321.922" y="9.79425" width="62.4124" height="8.91606" fill="#DCC7AF"/>
<rect x="72.2709" y="0.877518" width="249.65" height="8.91606" fill="#DCC7AF"/>
<rect x="45.5237" y="9.79425" width="26.7482" height="8.91606" fill="#DCC7AF"/>
<rect x="36.61" y="18.708" width="8.91606" height="17.8321" fill="#DCC7AF"/>
<rect x="9.85974" y="36.5415" width="26.7482" height="8.91606" fill="#DCC7AF"/>
<rect x="18.7735" y="366.434" width="17.8321" height="8.91606" fill="#DCC7AF"/>
<rect x="72.2709" y="9.79425" width="249.65" height="356.642" fill="#DCC7AF"/>
<rect x="45.5237" y="18.708" width="26.7482" height="347.726" fill="#DCC7AF"/>
<rect x="18.7735" y="45.4582" width="26.7482" height="213.985" fill="#DCC7AF"/>
<rect x="9.85974" y="45.4582" width="8.91606" height="213.985" fill="#DCC7AF"/>
<rect x="526.989" y="134.62" width="8.91606" height="178.321" fill="#DCC7AF"/>
<rect x="526.989" y="18.708" width="17.8321" height="53.4963" fill="#DCC7AF"/>
<rect x="18.7735" y="259.445" width="26.7482" height="106.993" fill="#DCC7AF"/>
<rect x="36.61" y="366.434" width="124.825" height="8.91606" fill="#DCC7AF"/>
<rect x="277.341" y="366.434" width="124.825" height="8.91606" fill="#DCC7AF"/>
<rect x="446.744" y="134.62" width="80.2445" height="240.733" fill="#DCC7AF"/>
<rect x="321.922" y="18.708" width="124.825" height="347.726" fill="#DCC7AF"/>
<rect x="384.333" y="9.79425" width="151.573" height="8.91606" fill="#DCC7AF"/>
<rect x="518.075" y="107.872" width="8.91606" height="26.7482" fill="#DCC7AF"/>
<rect x="518.075" y="18.708" width="8.91606" height="62.4124" fill="#DCC7AF"/>
<rect x="446.744" y="18.708" width="71.3284" height="115.909" fill="#DCC7AF"/>
<rect x="36.61" y="36.5415" width="8.91606" height="8.91606" fill="#DCC7AF"/>
<rect x="509.158" y="107.872" width="8.91606" height="178.321" fill="#BAA48B"/>
<rect x="509.158" y="107.872" width="8.91606" height="178.321" fill="#BAA48B"/>
<rect x="45.5237" y="107.872" width="8.91606" height="178.321" fill="#BAA48B"/>
<rect x="54.4383" y="81.1251" width="8.91606" height="44.5803" transform="rotate(-180 54.4383 81.1251)" fill="#BAA48B"/>
<rect x="90.1022" y="36.5444" width="8.91606" height="35.6642" transform="rotate(90 90.1022 36.5444)" fill="#BAA48B"/>
<rect x="54.4379" y="54.3784" width="8.91606" height="8.91606" fill="#BAA48B"/>
<rect x="63.3577" y="45.4616" width="8.91606" height="8.91606" fill="#BAA48B"/>
<rect x="72.2714" y="63.2921" width="8.91606" height="8.91606" fill="#BAA48B"/>
<rect width="8.91606" height="44.5803" transform="matrix(-1 0 0 1 54.4383 312.937)" fill="#BAA48B"/>
<rect width="8.91606" height="35.6642" transform="matrix(0 -1 -1 0 90.1022 357.518)" fill="#BAA48B"/>
<rect width="8.91606" height="8.91606" transform="matrix(1 0 0 -1 54.4379 339.688)" fill="#BAA48B"/>
<rect width="8.91606" height="8.91606" transform="matrix(1 0 0 -1 63.3577 348.605)" fill="#BAA48B"/>
<rect width="8.91606" height="8.91606" transform="matrix(1 0 0 -1 72.2714 330.771)" fill="#BAA48B"/>
<rect x="509.161" y="312.937" width="8.91606" height="44.5803" fill="#BAA48B"/>
<rect x="473.497" y="357.518" width="8.91606" height="35.6642" transform="rotate(-90 473.497 357.518)" fill="#BAA48B"/>
<rect x="509.161" y="339.688" width="8.91606" height="8.91606" transform="rotate(180 509.161 339.688)" fill="#BAA48B"/>
<rect x="500.241" y="348.605" width="8.91606" height="8.91606" transform="rotate(180 500.241 348.605)" fill="#BAA48B"/>
<rect x="491.328" y="330.771" width="8.91606" height="8.91606" transform="rotate(180 491.328 330.771)" fill="#BAA48B"/>
<rect width="8.91606" height="44.5803" transform="matrix(1 0 0 -1 509.161 81.1251)" fill="#BAA48B"/>
<rect width="8.91606" height="35.6642" transform="matrix(0 1 1 0 473.497 36.5444)" fill="#BAA48B"/>
<rect width="8.91606" height="8.91606" transform="matrix(-1 0 0 1 509.161 54.3784)" fill="#BAA48B"/>
<rect width="8.91606" height="8.91606" transform="matrix(-1 0 0 1 500.241 45.4616)" fill="#BAA48B"/>
<rect width="8.91606" height="8.91606" transform="matrix(-1 0 0 1 491.328 63.2921)" fill="#BAA48B"/>
<rect width="8.91606" height="178.321" transform="matrix(1 0 0 -1 535.909 312.94)" fill="#E9D2B8"/>
<rect x="535.909" y="375.351" width="8.91606" height="62.4124" transform="rotate(180 535.909 375.351)" fill="#E9D2B8"/>
<rect x="526.989" y="384.267" width="71.3284" height="8.91606" transform="rotate(180 526.989 384.267)" fill="#E9D2B8"/>
<rect x="455.661" y="375.351" width="53.4963" height="8.91606" transform="rotate(180 455.661 375.351)" fill="#E9D2B8"/>
<rect x="402.166" y="384.267" width="115.909" height="8.91606" transform="rotate(180 402.166 384.267)" fill="#E9D2B8"/>
<rect x="286.258" y="375.351" width="124.825" height="8.91606" transform="rotate(180 286.258 375.351)" fill="#E9D2B8"/>
<rect x="161.432" y="384.267" width="124.825" height="8.91606" transform="rotate(180 161.432 384.267)" fill="#E9D2B8"/>
<rect x="36.61" y="375.351" width="17.8321" height="8.91606" transform="rotate(180 36.61 375.351)" fill="#E9D2B8"/>
<rect x="18.7735" y="366.437" width="8.91606" height="106.993" transform="rotate(180 18.7735 366.437)" fill="#E9D2B8"/>
<rect x="9.85974" y="259.445" width="8.91606" height="213.985" transform="rotate(180 9.85974 259.445)" fill="#E9D2B8"/>
<rect width="8.91606" height="17.8321" transform="matrix(1 0 0 -1 526.989 125.703)" fill="#E9D2B8"/>
<rect width="8.91606" height="26.7482" transform="matrix(1 0 0 -1 518.075 107.872)" fill="#E9D2B8"/>
<rect width="8.91606" height="8.91606" transform="matrix(1 0 0 -1 535.909 81.1222)" fill="#E9D2B8"/>
<rect width="8.91606" height="17.8321" transform="matrix(1 0 0 -1 535.909 27.6247)" fill="#E9D2B8"/>
<rect width="8.91606" height="17.8321" transform="matrix(1 0 0 -1 526.989 18.711)" fill="#E9D2B8"/>
<rect width="8.91606" height="53.4963" transform="matrix(1 0 0 -1 544.822 72.2054)" fill="#E9D2B8"/>
<rect x="9.85974" y="36.5445" width="26.7482" height="8.91606" fill="#E9D2B8"/>
<rect x="36.61" y="18.711" width="8.91606" height="17.8321" fill="#E9D2B8"/>
<rect x="45.5237" y="9.79425" width="26.7482" height="8.91606" fill="#E9D2B8"/>
<rect x="72.2709" y="0.877518" width="249.65" height="8.91606" fill="#E9D2B8"/>
<rect x="321.922" y="9.79425" width="62.4124" height="8.91606" fill="#E9D2B8"/>
<rect x="384.333" y="0.877518" width="142.657" height="8.91606" fill="#E9D2B8"/>
<rect x="526.989" y="241.612" width="8.91606" height="17.8321" fill="#E9D2B8"/>
<rect x="526.989" y="161.367" width="8.91606" height="8.91606" fill="#E9D2B8"/>
<rect x="526.989" y="36.5445" width="17.8321" height="8.91606" fill="#E9D2B8"/>
<rect x="535.909" y="45.4582" width="8.91606" height="8.91606" fill="#E9D2B8"/>
<rect x="411.083" y="9.79425" width="62.4124" height="8.91606" fill="#E9D2B8"/>
<rect x="428.914" y="18.711" width="17.8321" height="8.91606" fill="#E9D2B8"/>
<rect x="223.844" y="9.79425" width="17.8321" height="8.91606" fill="#E9D2B8"/>
<rect x="232.76" y="18.711" width="8.91606" height="8.91606" fill="#E9D2B8"/>
<rect x="286.258" y="9.79425" width="26.7482" height="8.91606" fill="#E9D2B8"/>
<rect x="72.2709" y="9.79425" width="8.91606" height="8.91606" fill="#E9D2B8"/>
<rect x="72.2709" y="18.711" width="17.8321" height="8.91606" fill="#E9D2B8"/>
<rect x="9.85974" y="45.4582" width="8.91606" height="62.4124" fill="#E9D2B8"/>
<rect x="18.7735" y="45.4582" width="8.91606" height="35.6642" fill="#E9D2B8"/>
<rect x="9.85974" y="179.2" width="8.91606" height="44.5803" fill="#E9D2B8"/>
<rect x="18.7735" y="214.864" width="8.91606" height="26.7482" fill="#E9D2B8"/>
<rect x="9.85974" y="241.612" width="8.91606" height="17.8321" fill="#E9D2B8"/>
<rect x="18.7735" y="268.359" width="8.91606" height="62.4124" fill="#E9D2B8"/>
<rect x="18.7735" y="339.69" width="8.91606" height="8.91606" fill="#E9D2B8"/>
<rect x="72.2709" y="366.437" width="26.7482" height="8.91606" fill="#E9D2B8"/>
<rect x="107.938" y="366.437" width="17.8321" height="8.91606" fill="#E9D2B8"/>
<rect x="214.93" y="357.52" width="35.6642" height="8.91606" fill="#E9D2B8"/>
<rect x="339.755" y="366.437" width="8.91606" height="8.91606" fill="#E9D2B8"/>
<rect x="375.416" y="366.437" width="17.8321" height="8.91606" fill="#E9D2B8"/>
<rect x="428.914" y="357.52" width="17.8321" height="8.91606" fill="#E9D2B8"/>
<rect x="491.328" y="366.437" width="8.91606" height="8.91606" fill="#E9D2B8"/>
</svg>
