<svg width="128" height="128" viewBox="0 0 128 128" fill="none" xmlns="http://www.w3.org/2000/svg">
<rect width="128" height="128" rx="16" transform="matrix(-1 0 0 1 128 0)" fill="white"/>
<rect x="94" y="41" width="15" height="25" fill="#118A07"/>
<rect x="49" y="36" width="25" height="25" fill="#118A07"/>
<rect x="74" y="26" width="20" height="45" fill="#118A07"/>
<rect x="79" y="31" width="5" height="5" fill="#0C4F04"/>
<rect x="59" y="41" width="5" height="5" fill="#0C4F04"/>
<rect x="64" y="36" width="5" height="5" fill="#0C4F04"/>
<rect x="54" y="46" width="5" height="5" fill="#0C4F04"/>
<rect x="89" y="46" width="5" height="5" fill="#0C4F04"/>
<rect x="84" y="36" width="5" height="10" fill="#0C4F04"/>
<rect x="69" y="51" width="5" height="10" fill="#0C4F04"/>
<rect x="74" y="36" width="5" height="15" fill="#0C4F04"/>
<rect x="94" y="51" width="5" height="15" fill="#0C4F04"/>
<rect x="24" y="61" width="50" height="35" fill="#38D6FA"/>
<rect x="29" y="51" width="30" height="10" fill="#38D6FA"/>
<rect x="19" y="76" width="5" height="5" fill="#38D6FA"/>
<rect x="29" y="46" width="5" height="5" fill="#38D6FA"/>
<rect x="19" y="81" width="5" height="5" fill="#18AAE3"/>
<rect x="49" y="56" width="10" height="5" fill="#18AAE3"/>
<rect x="24" y="66" width="5" height="10" fill="#18AAE3"/>
<rect x="24" y="86" width="5" height="5" fill="#18AAE3"/>
<rect x="24" y="86" width="5" height="5" fill="#18AAE3"/>
<rect x="44" y="71" width="5" height="5" fill="#18AAE3"/>
<rect x="39" y="76" width="5" height="5" fill="#18AAE3"/>
<rect x="44" y="61" width="10" height="5" fill="#18AAE3"/>
<rect x="34" y="61" width="5" height="5" fill="#18AAE3"/>
<rect x="64" y="86" width="5" height="5" fill="#18AAE3"/>
<rect x="69" y="71" width="25" height="30" fill="#18AAE3"/>
<rect x="94" y="66" width="15" height="15" fill="#18AAE3"/>
<rect x="54" y="81" width="10" height="5" fill="white"/>
<rect x="104" y="76" width="5" height="5" fill="white"/>
<rect x="89" y="81" width="5" height="5" fill="white"/>
<rect x="84" y="96" width="5" height="5" fill="white"/>
<rect x="74" y="96" width="5" height="5" fill="white"/>
<rect x="54" y="86" width="5" height="5" fill="white"/>
<rect x="49" y="81" width="5" height="10" fill="#E90003"/>
<rect x="29" y="41" width="5" height="5" fill="black"/>
<rect x="34" y="91" width="30" height="5" fill="#18AAE3"/>
<rect x="74" y="21" width="15" height="5" fill="black"/>
<rect x="19" y="86" width="5" height="5" fill="black"/>
<rect x="44" y="41" width="5" height="5" fill="black"/>
<rect x="69" y="26" width="5" height="5" fill="black"/>
<rect x="104" y="41" width="5" height="5" fill="black"/>
<rect x="104" y="61" width="5" height="5" fill="black"/>
<rect x="69" y="71" width="5" height="5" fill="black"/>
<rect x="94" y="76" width="5" height="5" fill="black"/>
<rect x="84" y="81" width="5" height="5" fill="black"/>
<rect x="69" y="86" width="5" height="5" fill="black"/>
<rect x="74" y="81" width="5" height="5" fill="black"/>
<rect x="64" y="91" width="5" height="5" fill="black"/>
<rect x="49" y="76" width="10" height="5" fill="black"/>
<rect x="44" y="81" width="5" height="10" fill="black"/>
<rect x="59" y="56" width="5" height="5" fill="black"/>
<rect x="14" y="66" width="5" height="20" fill="black"/>
<rect x="19" y="61" width="5" height="15" fill="black"/>
<rect x="89" y="26" width="5" height="10" fill="black"/>
<rect x="74" y="61" width="5" height="10" fill="black"/>
<rect x="24" y="46" width="5" height="15" fill="black"/>
<rect x="109" y="46" width="5" height="15" fill="black"/>
<rect x="109" y="66" width="5" height="15" fill="black"/>
<rect x="89" y="86" width="5" height="15" fill="black"/>
<rect x="24" y="91" width="10" height="5" fill="black"/>
<rect x="34" y="46" width="15" height="5" fill="black"/>
<rect x="59" y="31" width="15" height="5" fill="black"/>
<rect x="89" y="66" width="15" height="5" fill="black"/>
<rect x="94" y="81" width="15" height="5" fill="black"/>
<rect x="79" y="71" width="15" height="5" fill="black"/>
<rect x="74" y="101" width="15" height="5" fill="black"/>
<rect x="34" y="96" width="40" height="5" fill="black"/>
<rect x="49" y="36" width="10" height="5" fill="black"/>
<rect x="64" y="61" width="10" height="5" fill="black"/>
<rect x="49" y="51" width="10" height="5" fill="black"/>
<rect x="94" y="36" width="10" height="5" fill="black"/>
</svg>
