<svg width="128" height="128" viewBox="0 0 128 128" fill="none" xmlns="http://www.w3.org/2000/svg">
<rect width="128" height="128" rx="16" transform="matrix(-1 0 0 1 128 0)" fill="#FF4C41"/>
<rect x="31" y="39" width="65" height="25" fill="#FF002B"/>
<rect x="41" y="29" width="45" height="10" fill="#FF002B"/>
<rect x="31" y="69" width="65" height="15" fill="white"/>
<rect x="36" y="84" width="55" height="10" fill="white"/>
<rect x="51" y="94" width="25" height="5" fill="white"/>
<rect x="96" y="64" width="5" height="5" fill="white"/>
<rect x="26" y="64" width="5" height="5" fill="white"/>
<rect x="56" y="59" width="15" height="15" fill="white"/>
<rect x="51" y="99" width="25" height="5" fill="black"/>
<rect x="31" y="49" width="15" height="5" transform="rotate(90 31 49)" fill="black"/>
<rect x="31" y="49" width="15" height="5" transform="rotate(90 31 49)" fill="black"/>
<rect x="31" y="49" width="15" height="5" transform="rotate(90 31 49)" fill="black"/>
<rect x="31" y="49" width="15" height="5" transform="rotate(90 31 49)" fill="black"/>
<rect x="101" y="49" width="15" height="5" transform="rotate(90 101 49)" fill="black"/>
<rect x="101" y="49" width="15" height="5" transform="rotate(90 101 49)" fill="black"/>
<rect x="101" y="49" width="15" height="5" transform="rotate(90 101 49)" fill="black"/>
<rect x="101" y="49" width="15" height="5" transform="rotate(90 101 49)" fill="black"/>
<rect x="101" y="69" width="15" height="5" transform="rotate(90 101 69)" fill="black"/>
<rect x="101" y="69" width="15" height="5" transform="rotate(90 101 69)" fill="black"/>
<rect x="101" y="69" width="15" height="5" transform="rotate(90 101 69)" fill="black"/>
<rect x="101" y="69" width="15" height="5" transform="rotate(90 101 69)" fill="black"/>
<rect x="106" y="59" width="15" height="5" transform="rotate(90 106 59)" fill="black"/>
<rect x="106" y="59" width="15" height="5" transform="rotate(90 106 59)" fill="black"/>
<rect x="106" y="59" width="15" height="5" transform="rotate(90 106 59)" fill="black"/>
<rect x="106" y="59" width="15" height="5" transform="rotate(90 106 59)" fill="black"/>
<rect x="51" y="24" width="25" height="5" fill="black"/>
<rect x="26" y="59" width="15" height="5" transform="rotate(90 26 59)" fill="black"/>
<rect x="26" y="59" width="15" height="5" transform="rotate(90 26 59)" fill="black"/>
<rect x="26" y="59" width="15" height="5" transform="rotate(90 26 59)" fill="black"/>
<rect x="26" y="59" width="15" height="5" transform="rotate(90 26 59)" fill="black"/>
<rect x="36" y="39" width="10" height="5" transform="rotate(90 36 39)" fill="black"/>
<rect x="36" y="39" width="10" height="5" transform="rotate(90 36 39)" fill="black"/>
<rect x="36" y="39" width="10" height="5" transform="rotate(90 36 39)" fill="black"/>
<rect x="36" y="39" width="10" height="5" transform="rotate(90 36 39)" fill="black"/>
<rect x="96" y="39" width="10" height="5" transform="rotate(90 96 39)" fill="black"/>
<rect x="96" y="39" width="10" height="5" transform="rotate(90 96 39)" fill="black"/>
<rect x="96" y="39" width="10" height="5" transform="rotate(90 96 39)" fill="black"/>
<rect x="96" y="39" width="10" height="5" transform="rotate(90 96 39)" fill="black"/>
<rect x="51" y="34" width="10" height="5" transform="rotate(-180 51 34)" fill="black"/>
<rect x="51" y="34" width="10" height="5" transform="rotate(-180 51 34)" fill="black"/>
<rect x="51" y="34" width="10" height="5" transform="rotate(-180 51 34)" fill="black"/>
<rect x="51" y="34" width="10" height="5" transform="rotate(-180 51 34)" fill="black"/>
<rect x="51" y="99" width="10" height="5" transform="rotate(-180 51 99)" fill="black"/>
<rect x="51" y="99" width="10" height="5" transform="rotate(-180 51 99)" fill="black"/>
<rect x="51" y="99" width="10" height="5" transform="rotate(-180 51 99)" fill="black"/>
<rect x="51" y="99" width="10" height="5" transform="rotate(-180 51 99)" fill="black"/>
<rect x="86" y="99" width="10" height="5" transform="rotate(-180 86 99)" fill="black"/>
<rect x="86" y="99" width="10" height="5" transform="rotate(-180 86 99)" fill="black"/>
<rect x="86" y="99" width="10" height="5" transform="rotate(-180 86 99)" fill="black"/>
<rect x="86" y="99" width="10" height="5" transform="rotate(-180 86 99)" fill="black"/>
<rect x="86" y="34" width="10" height="5" transform="rotate(-180 86 34)" fill="black"/>
<rect x="86" y="34" width="10" height="5" transform="rotate(-180 86 34)" fill="black"/>
<rect x="86" y="34" width="10" height="5" transform="rotate(-180 86 34)" fill="black"/>
<rect x="86" y="34" width="10" height="5" transform="rotate(-180 86 34)" fill="black"/>
<rect x="41" y="34" width="5" height="5" transform="rotate(90 41 34)" fill="black"/>
<rect x="41" y="34" width="5" height="5" transform="rotate(90 41 34)" fill="black"/>
<rect x="41" y="34" width="5" height="5" transform="rotate(90 41 34)" fill="black"/>
<rect x="41" y="34" width="5" height="5" transform="rotate(90 41 34)" fill="black"/>
<rect x="36" y="84" width="5" height="5" transform="rotate(90 36 84)" fill="black"/>
<rect x="36" y="84" width="5" height="5" transform="rotate(90 36 84)" fill="black"/>
<rect x="36" y="84" width="5" height="5" transform="rotate(90 36 84)" fill="black"/>
<rect x="36" y="84" width="5" height="5" transform="rotate(90 36 84)" fill="black"/>
<rect x="41" y="89" width="5" height="5" transform="rotate(90 41 89)" fill="black"/>
<rect x="41" y="89" width="5" height="5" transform="rotate(90 41 89)" fill="black"/>
<rect x="41" y="89" width="5" height="5" transform="rotate(90 41 89)" fill="black"/>
<rect x="41" y="89" width="5" height="5" transform="rotate(90 41 89)" fill="black"/>
<rect x="96" y="84" width="5" height="5" transform="rotate(90 96 84)" fill="black"/>
<rect x="96" y="84" width="5" height="5" transform="rotate(90 96 84)" fill="black"/>
<rect x="96" y="84" width="5" height="5" transform="rotate(90 96 84)" fill="black"/>
<rect x="96" y="84" width="5" height="5" transform="rotate(90 96 84)" fill="black"/>
<rect x="91" y="89" width="5" height="5" transform="rotate(90 91 89)" fill="black"/>
<rect x="91" y="89" width="5" height="5" transform="rotate(90 91 89)" fill="black"/>
<rect x="91" y="89" width="5" height="5" transform="rotate(90 91 89)" fill="black"/>
<rect x="91" y="89" width="5" height="5" transform="rotate(90 91 89)" fill="black"/>
<rect x="91" y="34" width="5" height="5" transform="rotate(90 91 34)" fill="black"/>
<rect x="91" y="34" width="5" height="5" transform="rotate(90 91 34)" fill="black"/>
<rect x="91" y="34" width="5" height="5" transform="rotate(90 91 34)" fill="black"/>
<rect x="91" y="34" width="5" height="5" transform="rotate(90 91 34)" fill="black"/>
<rect x="31" y="69" width="15" height="5" transform="rotate(90 31 69)" fill="black"/>
<rect x="31" y="69" width="15" height="5" transform="rotate(90 31 69)" fill="black"/>
<rect x="31" y="69" width="15" height="5" transform="rotate(90 31 69)" fill="black"/>
<rect x="31" y="69" width="15" height="5" transform="rotate(90 31 69)" fill="black"/>
<rect x="71" y="79" width="15" height="5" transform="rotate(-180 71 79)" fill="black"/>
<rect x="71" y="79" width="15" height="5" transform="rotate(-180 71 79)" fill="black"/>
<rect x="71" y="79" width="15" height="5" transform="rotate(-180 71 79)" fill="black"/>
<rect x="71" y="79" width="15" height="5" transform="rotate(-180 71 79)" fill="black"/>
<rect x="56" y="59" width="15" height="5" transform="rotate(90 56 59)" fill="black"/>
<rect x="56" y="59" width="15" height="5" transform="rotate(90 56 59)" fill="black"/>
<rect x="56" y="59" width="15" height="5" transform="rotate(90 56 59)" fill="black"/>
<rect x="56" y="59" width="15" height="5" transform="rotate(90 56 59)" fill="black"/>
<rect x="76" y="59" width="15" height="5" transform="rotate(90 76 59)" fill="black"/>
<rect x="76" y="59" width="15" height="5" transform="rotate(90 76 59)" fill="black"/>
<rect x="76" y="59" width="15" height="5" transform="rotate(90 76 59)" fill="black"/>
<rect x="76" y="59" width="15" height="5" transform="rotate(90 76 59)" fill="black"/>
<rect x="71" y="59" width="15" height="5" transform="rotate(-180 71 59)" fill="black"/>
<rect x="71" y="59" width="15" height="5" transform="rotate(-180 71 59)" fill="black"/>
<rect x="71" y="59" width="15" height="5" transform="rotate(-180 71 59)" fill="black"/>
<rect x="71" y="59" width="15" height="5" transform="rotate(-180 71 59)" fill="black"/>
<rect x="31" y="64" width="20" height="5" fill="black"/>
<rect x="76" y="64" width="20" height="5" fill="black"/>
<rect x="91" y="69" width="5" height="15" fill="#BFBFBF"/>
<rect x="86" y="74" width="5" height="15" fill="#BFBFBF"/>
<rect x="81" y="79" width="5" height="15" fill="#BFBFBF"/>
<rect x="76" y="84" width="5" height="10" fill="#BFBFBF"/>
<rect x="71" y="89" width="5" height="10" fill="#BFBFBF"/>
<rect x="71" y="94" width="5" height="10" transform="rotate(90 71 94)" fill="#BFBFBF"/>
</svg>
    