<svg width="128" height="128" viewBox="0 0 128 128" fill="none" xmlns="http://www.w3.org/2000/svg">
<rect width="128" height="128" rx="16" transform="matrix(-1 0 0 1 128 0)" fill="white"/>
<rect x="91.0002" y="29" width="20" height="25" fill="#DF0400"/>
<rect x="96.0005" y="24" width="5" height="5" fill="#DF0400"/>
<rect x="30.9998" y="24" width="25" height="45" fill="#FF7D27"/>
<rect x="16" y="38.9999" width="15" height="25" fill="#FF7D27"/>
<rect x="26.0002" y="29" width="5" height="10" fill="#FF7D27"/>
<rect x="30.9998" y="64" width="5" height="5" fill="#FF6209"/>
<rect x="46" y="94" width="35" height="30" transform="rotate(-90 46 94)" fill="#FF6209"/>
<rect x="75.9998" y="88.9999" width="15" height="5" transform="rotate(-90 75.9998 88.9999)" fill="#FF6209"/>
<rect x="60.9998" y="58.9999" width="10" height="5" transform="rotate(-90 60.9998 58.9999)" fill="#FF6209"/>
<rect x="51.0002" y="58.9999" width="10" height="5" transform="rotate(-90 51.0002 58.9999)" fill="#FF6209"/>
<rect x="56" y="58.9999" width="20" height="5" transform="rotate(-90 56 58.9999)" fill="#FF6209"/>
<rect x="60.9998" y="104" width="10" height="15" transform="rotate(-90 60.9998 104)" fill="#FF6209"/>
<rect x="85.9995" y="68.9999" width="5" height="15" fill="#FF6209"/>
<rect x="91.0002" y="64" width="5" height="15" fill="#FF7D27"/>
<rect x="96.0005" y="58.9999" width="5" height="10" fill="#FF7D27"/>
<rect x="41" y="44" width="5" height="15" fill="#FE7B27"/>
<rect x="41" y="44" width="5" height="15" fill="black"/>
<rect x="80.9998" y="69" width="5" height="25" fill="#FE7B27"/>
<rect x="80.9998" y="69" width="5" height="25" fill="black"/>
<rect x="11" y="44" width="5" height="15" fill="#FE7B27"/>
<rect x="11" y="44" width="5" height="15" fill="black"/>
<rect x="51.0002" y="19" width="5" height="20" transform="rotate(90 51.0002 19)" fill="#FE7B27"/>
<rect x="51.0002" y="19" width="5" height="20" transform="rotate(90 51.0002 19)" fill="black"/>
<rect x="35.9998" y="48.9999" width="5" height="10" fill="#FE7B27"/>
<rect x="35.9998" y="48.9999" width="5" height="10" fill="black"/>
<rect x="21" y="29.0001" width="5" height="10" fill="#FE7B27"/>
<rect x="21" y="29.0001" width="5" height="10" fill="black"/>
<rect x="56" y="29.0001" width="5" height="10" fill="#FE7B27"/>
<rect x="56" y="29.0001" width="5" height="10" fill="black"/>
<rect x="60.9998" y="39" width="5" height="10" fill="#FE7B27"/>
<rect x="60.9998" y="39" width="5" height="10" fill="black"/>
<rect x="66" y="48.9999" width="5" height="10" fill="#FE7B27"/>
<rect x="66" y="48.9999" width="5" height="10" fill="black"/>
<rect x="35.9998" y="74" width="5" height="10" fill="#FE7B27"/>
<rect x="35.9998" y="74" width="5" height="10" fill="black"/>
<rect x="56" y="98.9999" width="5" height="5" fill="#FE7B27"/>
<rect x="56" y="98.9999" width="5" height="5" fill="black"/>
<rect x="41" y="83.9999" width="5" height="5" fill="#FE7B27"/>
<rect x="41" y="83.9999" width="5" height="5" fill="black"/>
<rect x="30.9998" y="83.9999" width="5" height="5" fill="#FE7B27"/>
<rect x="30.9998" y="83.9999" width="5" height="5" fill="black"/>
<rect x="35.9998" y="88.9999" width="5" height="5" fill="#FE7B27"/>
<rect x="35.9998" y="88.9999" width="5" height="5" fill="white"/>
<rect x="75.9998" y="64.0001" width="5" height="10" fill="#FE7B27"/>
<rect x="75.9998" y="64.0001" width="5" height="10" fill="black"/>
<rect x="75.9998" y="88.9999" width="5" height="20" fill="#FE7B27"/>
<rect x="75.9998" y="88.9999" width="5" height="20" fill="black"/>
<rect x="21" y="69" width="5" height="10" transform="rotate(-90 21 69)" fill="#FE7B27"/>
<rect x="21" y="69" width="5" height="10" transform="rotate(-90 21 69)" fill="black"/>
<rect x="30.9998" y="74" width="5" height="15" transform="rotate(-90 30.9998 74)" fill="#FE7B27"/>
<rect x="30.9998" y="74" width="5" height="15" transform="rotate(-90 30.9998 74)" fill="black"/>
<rect x="51.0002" y="98.9999" width="5" height="15" transform="rotate(-90 51.0002 98.9999)" fill="#FE7B27"/>
<rect x="51.0002" y="98.9999" width="5" height="15" transform="rotate(-90 51.0002 98.9999)" fill="black"/>
<rect x="35.9998" y="94.0001" width="5" height="15" transform="rotate(-90 35.9998 94.0001)" fill="#FE7B27"/>
<rect x="35.9998" y="94.0001" width="5" height="15" transform="rotate(-90 35.9998 94.0001)" fill="black"/>
<rect x="16" y="64.0001" width="5" height="5" transform="rotate(-90 16 64.0001)" fill="#FE7B27"/>
<rect x="16" y="64.0001" width="5" height="5" transform="rotate(-90 16 64.0001)" fill="black"/>
<rect x="16" y="44" width="5" height="5" transform="rotate(-90 16 44)" fill="#FE7B27"/>
<rect x="16" y="44" width="5" height="5" transform="rotate(-90 16 44)" fill="black"/>
<rect x="26.0002" y="29.0001" width="5" height="5" transform="rotate(-90 26.0002 29.0001)" fill="#FE7B27"/>
<rect x="26.0002" y="29.0001" width="5" height="5" transform="rotate(-90 26.0002 29.0001)" fill="black"/>
<rect x="51.0002" y="29.0001" width="5" height="5" transform="rotate(-90 51.0002 29.0001)" fill="#FE7B27"/>
<rect x="51.0002" y="29.0001" width="5" height="5" transform="rotate(-90 51.0002 29.0001)" fill="black"/>
<rect x="71" y="64.0001" width="5" height="5" transform="rotate(-90 71 64.0001)" fill="#FE7B27"/>
<rect x="71" y="64.0001" width="5" height="5" transform="rotate(-90 71 64.0001)" fill="black"/>
<rect x="75.9998" y="104" width="5" height="15" transform="rotate(90 75.9998 104)" fill="#FE7B27"/>
<rect x="75.9998" y="104" width="5" height="15" transform="rotate(90 75.9998 104)" fill="black"/>
<rect x="56" y="79" width="10" height="5" fill="black"/>
<rect x="56" y="69" width="5" height="5" fill="black"/>
<rect x="51.0002" y="74" width="5" height="5" fill="black"/>
<rect x="91.0002" y="79" width="5" height="5" fill="black"/>
<rect x="85.9995" y="64.0001" width="5" height="5" fill="black"/>
<rect x="101" y="24.0001" width="5" height="5" fill="black"/>
<rect x="96.0005" y="19" width="5" height="5" fill="black"/>
<rect x="106" y="54" width="5" height="5" fill="black"/>
<rect x="96.0005" y="69" width="5" height="10" fill="black"/>
<rect x="101" y="54" width="5" height="15" fill="black"/>
<rect x="111" y="39" width="5" height="15" fill="black"/>
<rect x="106" y="29.0001" width="5" height="10" fill="black"/>
<rect x="91.0002" y="54" width="5" height="10" fill="black"/>
<rect x="91.0002" y="24.0001" width="5" height="15" fill="black"/>
<rect x="85.9995" y="39" width="5" height="15" fill="black"/>
<rect x="85.9995" y="83.9999" width="5" height="5" fill="black"/>
<rect x="35.9998" y="44.0001" width="5" height="5" fill="#FE7B27"/>
<rect x="35.9998" y="44.0001" width="5" height="5" fill="white"/>
<rect x="35.9998" y="84" width="5" height="5" fill="#FE7B27"/>
<rect x="35.9998" y="84" width="5" height="5" fill="white"/>
<rect x="60.9998" y="99.0001" width="5" height="5" fill="#FE7B27"/>
<rect x="60.9998" y="99.0001" width="5" height="5" fill="white"/>
<rect x="71" y="99.0001" width="5" height="5" fill="#FE7B27"/>
<rect x="71" y="99.0001" width="5" height="5" fill="white"/>
<rect x="41" y="74.0001" width="10" height="10" fill="#FFE301"/>
<rect x="45.9998" y="79.0001" width="10" height="10" fill="#FFE301"/>
<rect x="51" y="84" width="10" height="10" fill="#FFE301"/>
<rect x="96.0002" y="49" width="5" height="10" fill="#FFE301"/>
<rect x="101" y="44.0001" width="5" height="10" fill="#FFE301"/>
</svg>
