<svg width="128" height="128" viewBox="0 0 128 128" fill="none" xmlns="http://www.w3.org/2000/svg">
<rect width="128" height="128" rx="16" transform="matrix(-1 0 0 1 128 0)" fill="white"/>
<rect x="64" y="29" width="45" height="40" fill="#F02311"/>
<rect x="84" y="24" width="5" height="5" fill="#F02311"/>
<rect x="104" y="24" width="5" height="5" fill="#F02311"/>
<rect x="19" y="49" width="25" height="25" fill="#18AAE3"/>
<rect x="29" y="34" width="35" height="15" fill="#18AAE3"/>
<rect x="24" y="69" width="5" height="5" fill="#FFF8C9"/>
<rect x="39" y="89" width="5" height="5" fill="#FFF8C9"/>
<rect x="64" y="99" width="10" height="5" fill="#FFF8C9"/>
<rect x="39" y="69" width="5" height="5" fill="#FFF8C9"/>
<rect x="29" y="64" width="15" height="5" fill="#FFF8C9"/>
<rect x="39" y="54" width="10" height="5" fill="#FFF8C9"/>
<rect x="49" y="44" width="10" height="5" fill="#FFF8C9"/>
<rect x="44" y="49" width="20" height="10" fill="#FFF8C9"/>
<rect x="44" y="59" width="35" height="35" fill="#FFF8C9"/>
<rect x="34" y="59" width="10" height="5" fill="#FFF8C9"/>
<rect x="64" y="64" width="20" height="10" fill="#18AAE3"/>
<rect x="74" y="74" width="5" height="5" fill="#18AAE3"/>
<rect x="69" y="59" width="5" height="5" fill="#18AAE3"/>
<rect x="79" y="69" width="5" height="10" fill="#18AAE3"/>
<rect x="69" y="44" width="5" height="15" fill="#FFDD00"/>
<rect x="74" y="49" width="5" height="15" fill="#FFDD00"/>
<rect x="79" y="39" width="5" height="25" fill="#FFDD00"/>
<rect x="84" y="44" width="5" height="25" fill="#FFDD00"/>
<rect x="94" y="49" width="5" height="5" fill="#FFDD00"/>
<rect x="94" y="59" width="5" height="10" fill="#FFDD00"/>
<rect x="89" y="39" width="5" height="30" fill="#FFDD00"/>
<rect x="64" y="104" width="10" height="5" fill="black"/>
<rect x="89" y="24" width="5" height="10" fill="black"/>
<rect x="54" y="64" width="5" height="10" fill="black"/>
<rect x="69" y="29" width="10" height="5" fill="black"/>
<rect x="39" y="84" width="10" height="5" fill="black"/>
<rect x="54" y="79" width="10" height="5" fill="black"/>
<rect x="84" y="19" width="10" height="5" fill="black"/>
<rect x="104" y="19" width="10" height="5" fill="black"/>
<rect x="34" y="94" width="40" height="5" fill="black"/>
<rect x="59" y="24" width="5" height="20" fill="black"/>
<rect x="94" y="29" width="5" height="5" fill="black"/>
<rect x="99" y="24" width="5" height="5" fill="black"/>
<rect x="79" y="24" width="5" height="5" fill="black"/>
<rect x="34" y="89" width="5" height="5" fill="black"/>
<rect x="49" y="69" width="5" height="15" fill="black"/>
<rect x="64" y="24" width="5" height="5" fill="black"/>
<rect x="19" y="74" width="10" height="5" fill="black"/>
<rect x="34" y="74" width="5" height="5" fill="black"/>
<rect x="29" y="69" width="10" height="5" fill="black"/>
<rect x="14" y="59" width="5" height="15" fill="black"/>
<rect x="19" y="49" width="5" height="10" fill="black"/>
<rect x="24" y="39" width="5" height="10" fill="black"/>
<rect x="39" y="74" width="5" height="10" fill="black"/>
<rect x="29" y="34" width="5" height="5" fill="black"/>
<rect x="34" y="29" width="25" height="5" fill="black"/>
<rect x="49" y="54" width="10" height="5" fill="black"/>
<rect x="84" y="69" width="30" height="5" fill="black"/>
<rect x="64" y="44" width="5" height="20" fill="black"/>
<rect x="109" y="64" width="5" height="5" fill="black"/>
<rect x="44" y="59" width="5" height="5" fill="black"/>
<rect x="49" y="89" width="5" height="5" fill="black"/>
<rect x="64" y="74" width="5" height="5" fill="black"/>
<rect x="109" y="24" width="5" height="10" fill="black"/>
<rect x="79" y="74" width="5" height="15" fill="black"/>
<rect x="74" y="89" width="5" height="15" fill="black"/>
<rect x="59" y="89" width="5" height="15" fill="black"/>
<rect x="99" y="44" width="15" height="5" fill="black"/>
<rect x="109" y="49" width="5" height="5" fill="black"/>
<rect x="104" y="34" width="5" height="10" fill="black"/>
<rect x="104" y="54" width="5" height="10" fill="black"/>
</svg>
