<svg width="128" height="128" viewBox="0 0 128 128" fill="none" xmlns="http://www.w3.org/2000/svg">
<rect width="128" height="128" rx="16" transform="matrix(-1 0 0 1 128 0)" fill="white"/>
<rect x="16" y="56" width="25" height="15" fill="#9A6A3A"/>
<rect x="31" y="71" width="25" height="10" fill="#9A6A3A"/>
<rect x="36" y="81" width="25" height="20" fill="#9A6A3A"/>
<rect x="66" y="86" width="15" height="20" fill="#9A6A3A"/>
<rect x="96" y="91" width="10" height="5" fill="#9A6A3A"/>
<rect x="41" y="46" width="5" height="10" fill="#9A6A3A"/>
<rect x="46" y="21" width="30" height="35" fill="#9A6A3A"/>
<rect x="71" y="31" width="35" height="30" fill="#9A6A3A"/>
<rect x="106" y="41" width="5" height="15" fill="#9A6A3A"/>
<rect x="46" y="56" width="55" height="35" fill="#9A6A3A"/>
<rect x="16" y="41" width="20" height="15" fill="#FFF8C9"/>
<rect x="51" y="56" width="20" height="15" fill="#FFF8C9"/>
<rect x="71" y="61" width="10" height="5" fill="#FFF8C9"/>
<rect x="71" y="66" width="15" height="5" fill="#FFF8C9"/>
<rect x="56" y="71" width="45" height="10" fill="#FFF8C9"/>
<rect x="66" y="81" width="40" height="10" fill="#FFF8C9"/>
<rect x="26" y="56" width="5" height="5" fill="#FFF8C9"/>
<rect x="21" y="31" width="15" height="10" fill="#FFF8C9"/>
<rect x="71" y="56" width="5" height="5" fill="black"/>
<rect x="16" y="66" width="5" height="5" fill="black"/>
<rect x="36" y="81" width="5" height="5" fill="black"/>
<rect x="56" y="76" width="5" height="5" fill="black"/>
<rect x="96" y="66" width="5" height="5" fill="black"/>
<rect x="101" y="61" width="5" height="5" fill="black"/>
<rect x="101" y="61" width="5" height="5" fill="black"/>
<rect x="106" y="56" width="5" height="5" fill="black"/>
<rect x="106" y="56" width="5" height="5" fill="black"/>
<rect x="51" y="71" width="5" height="5" fill="black"/>
<rect x="56" y="86" width="5" height="5" fill="black"/>
<rect x="66" y="101" width="5" height="5" fill="black"/>
<rect x="106" y="91" width="5" height="5" fill="black"/>
<rect x="81" y="101" width="5" height="5" fill="black"/>
<rect x="66" y="86" width="5" height="5" fill="black"/>
<rect x="51" y="91" width="5" height="10" fill="black"/>
<rect x="61" y="81" width="5" height="15" fill="black"/>
<rect x="76" y="86" width="5" height="15" fill="black"/>
<rect x="101" y="71" width="5" height="15" fill="black"/>
<rect x="111" y="36" width="5" height="20" fill="black"/>
<rect x="96" y="39" width="5" height="10" fill="black"/>
<rect x="91" y="39" width="5" height="10" fill="black"/>
<rect x="86" y="34" width="5" height="10" fill="black"/>
<rect x="31" y="21" width="5" height="15" fill="black"/>
<rect x="36" y="36" width="5" height="20" fill="black"/>
<rect x="41" y="56" width="5" height="15" fill="black"/>
<rect x="21" y="71" width="10" height="5" fill="black"/>
<rect x="31" y="76" width="10" height="5" fill="black"/>
<rect x="36" y="101" width="15" height="5" fill="black"/>
<rect x="16" y="36" width="5" height="5" fill="black"/>
<rect x="21" y="31" width="5" height="5" fill="black"/>
<rect x="51" y="41" width="10" height="5" fill="black"/>
<rect x="51" y="51" width="20" height="5" fill="black"/>
<rect x="41" y="41" width="5" height="5" fill="black"/>
<rect x="41" y="31" width="25" height="5" fill="black"/>
<rect x="76" y="26" width="25" height="5" fill="black"/>
<rect x="46" y="46" width="5" height="5" fill="black"/>
<rect x="61" y="46" width="5" height="5" fill="black"/>
<rect x="46" y="56" width="5" height="5" fill="black"/>
<rect x="66" y="36" width="5" height="5" fill="black"/>
<rect x="101" y="31" width="5" height="5" fill="black"/>
<rect x="106" y="36" width="5" height="5" fill="black"/>
<rect x="41" y="16" width="5" height="10" fill="black"/>
<rect x="46" y="26" width="5" height="5" fill="black"/>
<rect x="46" y="16" width="20" height="5" fill="black"/>
<rect x="66" y="21" width="10" height="5" fill="black"/>
<rect x="56" y="96" width="10" height="5" fill="black"/>
<rect x="81" y="91" width="15" height="5" fill="black"/>
<rect x="96" y="96" width="15" height="5" fill="black"/>
<rect x="96" y="86" width="10" height="5" fill="black"/>
<rect x="71" y="106" width="15" height="5" fill="black"/>
<rect x="26" y="26" width="5" height="5" fill="black"/>
<rect x="11" y="41" width="5" height="25" fill="black"/>
<rect x="31" y="86" width="5" height="15" fill="black"/>
<rect x="91" y="34" width="5" height="5" fill="white"/>
<rect x="41" y="36" width="5" height="5" fill="white"/>
</svg>
