<svg width="648" height="276" viewBox="0 0 648 276" fill="none" xmlns="http://www.w3.org/2000/svg">
<g clip-path="url(#clip0_6_2107)">
<rect width="15.7246" height="15.7246" transform="translate(45.738 3.86792) rotate(13.943)" fill="#FFCA9A"/>
<rect width="15.7246" height="15.7246" transform="translate(60.9995 7.65686) rotate(13.943)" fill="#FFCA9A"/>
<rect width="15.7246" height="15.7246" transform="translate(76.2607 11.4459) rotate(13.943)" fill="#FFCA9A"/>
<rect width="15.7246" height="15.7246" transform="translate(91.5221 15.2349) rotate(13.943)" fill="#FFCA9A"/>
<rect width="15.7246" height="15.7246" transform="translate(106.783 19.0238) rotate(13.943)" fill="#FFCA9A"/>
<rect width="15.7246" height="15.7246" transform="translate(26.6879 15.3402) rotate(13.943)" fill="#FFCA9A"/>
<rect width="15.7246" height="15.7246" transform="translate(41.9491 19.1294) rotate(13.943)" fill="#FFCA9A"/>
<rect width="15.7246" height="15.7246" transform="translate(57.2104 22.9182) rotate(13.943)" fill="#FFCA9A"/>
<rect width="15.7246" height="15.7246" transform="translate(72.4718 26.7072) rotate(13.943)" fill="#FFCA9A"/>
<rect width="15.7246" height="15.7246" transform="translate(87.7332 30.4961) rotate(13.943)" fill="#FFCA9A"/>
<rect width="15.7246" height="15.7246" transform="translate(102.994 34.285) rotate(13.943)" fill="#FFCA9A"/>
<rect width="15.7246" height="15.7246" transform="translate(118.256 38.0741) rotate(13.943)" fill="#FFCA9A"/>
<rect width="15.7246" height="15.7246" transform="translate(22.8989 30.6017) rotate(13.943)" fill="#FFCA9A"/>
<rect width="15.7246" height="15.7246" transform="translate(38.1603 34.3906) rotate(13.943)" fill="#FFCA9A"/>
<rect width="15.7246" height="15.7246" transform="translate(53.4215 38.1796) rotate(13.943)" fill="#FFCA9A"/>
<rect width="15.7246" height="15.7246" transform="translate(68.6827 41.9685) rotate(13.943)" fill="#FF842B"/>
<rect width="15.7246" height="15.7246" transform="translate(83.9442 45.7573) rotate(13.943)" fill="#FF842B"/>
<rect width="15.7246" height="15.7246" transform="translate(99.2054 49.5465) rotate(13.943)" fill="#FF842B"/>
<rect width="15.7246" height="15.7246" transform="translate(114.467 53.3354) rotate(13.943)" fill="#FF842B"/>
<rect width="15.7246" height="15.7246" transform="translate(19.1099 45.8629) rotate(13.943)" fill="#FFCA9A"/>
<rect width="15.7246" height="15.7246" transform="translate(34.3713 49.6519) rotate(13.943)" fill="#FFCA9A"/>
<rect width="15.7246" height="15.7246" transform="translate(49.6326 53.4408) rotate(13.943)" fill="#FFCA9A"/>
<rect width="15.7246" height="15.7246" transform="translate(80.1553 61.0188) rotate(13.943)" fill="#FFCA9A"/>
<rect width="15.7246" height="15.7246" transform="translate(95.4165 64.8077) rotate(13.943)" fill="#FFCA9A"/>
<rect width="15.7246" height="15.7246" transform="translate(110.678 68.5967) rotate(13.943)" fill="#FFCA9A"/>
<rect width="15.7246" height="15.7246" transform="translate(15.3209 61.1243) rotate(13.943)" fill="#FFCA9A"/>
<rect width="15.7246" height="15.7246" transform="translate(30.5822 64.9131) rotate(13.943)" fill="#FFCA9A"/>
<rect width="15.7246" height="15.7246" transform="translate(45.8436 68.7023) rotate(13.943)" fill="#FFCA9A"/>
<rect width="15.7246" height="15.7246" transform="translate(76.3662 76.28) rotate(13.943)" fill="#FF842B"/>
<rect width="15.7246" height="15.7246" transform="translate(91.6276 80.069) rotate(13.943)" fill="#FFCA9A"/>
<rect width="15.7246" height="15.7246" transform="translate(106.889 83.8579) rotate(13.943)" fill="#FFCA9A"/>
<rect width="15.7246" height="15.7246" transform="translate(26.7932 80.1746) rotate(13.943)" fill="#FFCA9A"/>
<rect width="15.7246" height="15.7246" transform="translate(42.0546 83.9635) rotate(13.943)" fill="#FFCA9A"/>
<rect width="15.7246" height="15.7246" transform="translate(57.3159 87.7524) rotate(13.943)" fill="#FFCA9A"/>
<rect width="15.7246" height="15.7246" transform="translate(72.5773 91.5414) rotate(13.943)" fill="#FFCA9A"/>
<rect width="15.7246" height="15.7246" transform="translate(87.8385 95.3304) rotate(13.943)" fill="#FFCA9A"/>
<rect width="15.7246" height="15.7246" transform="translate(11.532 76.3855) rotate(13.943)" fill="#FFCA9A"/>
<rect width="15.7246" height="15.7246" transform="translate(23.0044 95.4358) rotate(13.943)" fill="#FFCA9A"/>
<rect width="15.7246" height="15.7246" transform="translate(38.2656 99.2247) rotate(13.943)" fill="#FFCA9A"/>
<rect width="15.7246" height="15.7246" transform="translate(53.5271 103.014) rotate(13.943)" fill="#FFCA9A"/>
<rect width="15.7246" height="15.7246" transform="translate(68.7883 106.803) rotate(13.943)" fill="#FFCA9A"/>
<rect width="15.7246" height="15.7246" transform="translate(84.0496 110.592) rotate(13.943)" fill="#FFCA9A"/>
<rect width="15.7246" height="15.7246" transform="translate(103.1 99.1194) rotate(13.943)" fill="#FFCA9A"/>
<rect width="15.7246" height="15.7246" transform="translate(99.3108 114.381) rotate(13.943)" fill="#FF842B"/>
<rect width="15.7246" height="15.7246" transform="translate(19.2155 110.697) rotate(13.943)" fill="#FF842B"/>
<rect width="15.7246" height="15.7246" transform="translate(7.74304 91.647) rotate(13.943)" fill="#FF842B"/>
<rect width="15.7246" height="15.7246" transform="translate(34.4767 114.486) rotate(13.943)" fill="#FF842B"/>
<rect width="15.7246" height="15.7246" transform="translate(49.7379 118.275) rotate(13.943)" fill="#FF842B"/>
<rect width="15.7246" height="15.7246" transform="translate(64.9994 122.064) rotate(13.943)" fill="#FF842B"/>
<rect width="15.7246" height="15.7246" transform="translate(80.2606 125.853) rotate(13.943)" fill="#FF842B"/>
</g>
<g clip-path="url(#clip1_6_2107)">
<rect width="15.7246" height="15.7246" transform="translate(169.355 34.5586) rotate(13.943)" fill="#FFCA9A"/>
<rect width="15.7246" height="15.7246" transform="translate(184.616 38.3475) rotate(13.943)" fill="#FFCA9A"/>
<rect width="15.7246" height="15.7246" transform="translate(199.877 42.1366) rotate(13.943)" fill="#FFCA9A"/>
<rect width="15.7246" height="15.7246" transform="translate(215.139 45.9255) rotate(13.943)" fill="#FFCA9A"/>
<rect width="15.7246" height="15.7246" transform="translate(150.305 46.0309) rotate(13.943)" fill="#FFCA9A"/>
<rect width="15.7246" height="15.7246" transform="translate(165.566 49.8201) rotate(13.943)" fill="#FFCA9A"/>
<rect width="15.7246" height="15.7246" transform="translate(180.827 53.6089) rotate(13.943)" fill="#FFCA9A"/>
<rect width="15.7246" height="15.7246" transform="translate(196.089 57.3978) rotate(13.943)" fill="#FFCA9A"/>
<rect width="15.7246" height="15.7246" transform="translate(192.299 72.6592) rotate(13.943)" fill="#FF842B"/>
<rect width="15.7246" height="15.7246" transform="translate(226.611 64.9757) rotate(13.943)" fill="#FFCA9A"/>
<rect width="15.7246" height="15.7246" transform="translate(211.35 61.1868) rotate(13.943)" fill="#FFCA9A"/>
<rect width="15.7246" height="15.7246" transform="translate(241.872 68.7648) rotate(13.943)" fill="#FFCA9A"/>
<rect width="15.7246" height="15.7246" transform="translate(230.4 49.7145) rotate(13.943)" fill="#FFCA9A"/>
<rect width="15.7246" height="15.7246" transform="translate(146.516 61.2924) rotate(13.943)" fill="#FFCA9A"/>
<rect width="15.7246" height="15.7246" transform="translate(161.777 65.0813) rotate(13.943)" fill="#FFCA9A"/>
<rect width="15.7246" height="15.7246" transform="translate(177.038 68.8702) rotate(13.943)" fill="#FFCA9A"/>
<rect width="15.7246" height="15.7246" transform="translate(207.561 76.448) rotate(13.943)" fill="#FFCA9A"/>
<rect width="15.7246" height="15.7246" transform="translate(222.822 80.2372) rotate(13.943)" fill="#FFCA9A"/>
<rect width="15.7246" height="15.7246" transform="translate(238.083 84.0261) rotate(13.943)" fill="#FFCA9A"/>
<rect width="15.7246" height="15.7246" transform="translate(142.727 76.5536) rotate(13.943)" fill="#FFCA9A"/>
<rect width="15.7246" height="15.7246" transform="translate(157.988 80.3425) rotate(13.943)" fill="#FFCA9A"/>
<rect width="15.7246" height="15.7246" transform="translate(173.249 84.1315) rotate(13.943)" fill="#FFCA9A"/>
<rect width="15.7246" height="15.7246" transform="translate(203.772 91.7095) rotate(13.943)" fill="#FFCA9A"/>
<rect width="15.7246" height="15.7246" transform="translate(219.033 95.4984) rotate(13.943)" fill="#FFCA9A"/>
<rect width="15.7246" height="15.7246" transform="translate(234.294 99.2874) rotate(13.943)" fill="#FFCA9A"/>
<rect width="15.7246" height="15.7246" transform="translate(138.938 91.8148) rotate(13.943)" fill="#FFCA9A"/>
<rect width="15.7246" height="15.7246" transform="translate(154.199 95.6038) rotate(13.943)" fill="#FFCA9A"/>
<rect width="15.7246" height="15.7246" transform="translate(169.46 99.3929) rotate(13.943)" fill="#FFCA9A"/>
<rect width="15.7246" height="15.7246" transform="translate(199.983 106.971) rotate(13.943)" fill="#FFCA9A"/>
<rect width="15.7246" height="15.7246" transform="translate(215.244 110.76) rotate(13.943)" fill="#FFCA9A"/>
<rect width="15.7246" height="15.7246" transform="translate(230.505 114.549) rotate(13.943)" fill="#FFCA9A"/>
<rect width="15.7246" height="15.7246" transform="translate(135.149 107.076) rotate(13.943)" fill="#FFCA9A"/>
<rect width="15.7246" height="15.7246" transform="translate(150.41 110.865) rotate(13.943)" fill="#FFCA9A"/>
<rect width="15.7246" height="15.7246" transform="translate(165.671 114.654) rotate(13.943)" fill="#FFCA9A"/>
<rect width="15.7246" height="15.7246" transform="translate(180.933 118.443) rotate(13.943)" fill="#FFCA9A"/>
<rect width="15.7246" height="15.7246" transform="translate(196.194 122.232) rotate(13.943)" fill="#FFCA9A"/>
<rect width="15.7246" height="15.7246" transform="translate(211.455 126.021) rotate(13.943)" fill="#FFCA9A"/>
<rect width="15.7246" height="15.7246" transform="translate(226.717 129.81) rotate(13.943)" fill="#FFCA9A"/>
<rect width="15.7246" height="15.7246" transform="translate(131.36 122.338) rotate(13.943)" fill="#FF842B"/>
<rect width="15.7246" height="15.7246" transform="translate(146.621 126.126) rotate(13.943)" fill="#FFCA9A"/>
<rect width="15.7246" height="15.7246" transform="translate(161.882 129.915) rotate(13.943)" fill="#FFCA9A"/>
<rect width="15.7246" height="15.7246" transform="translate(177.144 133.704) rotate(13.943)" fill="#FFCA9A"/>
<rect width="15.7246" height="15.7246" transform="translate(192.405 137.493) rotate(13.943)" fill="#FFCA9A"/>
<rect width="15.7246" height="15.7246" transform="translate(207.666 141.282) rotate(13.943)" fill="#FFCA9A"/>
<rect width="15.7246" height="15.7246" transform="translate(222.927 145.071) rotate(13.943)" fill="#FF842B"/>
<rect width="15.7246" height="15.7246" transform="translate(142.832 141.388) rotate(13.943)" fill="#FF842B"/>
<rect width="15.7246" height="15.7246" transform="translate(158.093 145.177) rotate(13.943)" fill="#FF842B"/>
<rect width="15.7246" height="15.7246" transform="translate(173.355 148.966) rotate(13.943)" fill="#FF842B"/>
<rect width="15.7246" height="15.7246" transform="translate(188.616 152.755) rotate(13.943)" fill="#FF842B"/>
<rect width="15.7246" height="15.7246" transform="translate(203.877 156.544) rotate(13.943)" fill="#FF842B"/>
</g>
<g clip-path="url(#clip2_6_2107)">
<rect width="15.7246" height="15.7246" transform="translate(292.971 65.249) rotate(13.943)" fill="#FFCA9A"/>
<rect width="15.7246" height="15.7246" transform="translate(308.233 69.038) rotate(13.943)" fill="#FFCA9A"/>
<rect width="15.7246" height="15.7246" transform="translate(323.494 72.827) rotate(13.943)" fill="#FFCA9A"/>
<rect width="15.7246" height="15.7246" transform="translate(338.755 76.616) rotate(13.943)" fill="#FFCA9A"/>
<rect width="15.7246" height="15.7246" transform="translate(273.921 76.7214) rotate(13.943)" fill="#FFCA9A"/>
<rect width="15.7246" height="15.7246" transform="translate(289.182 80.5105) rotate(13.943)" fill="#FFCA9A"/>
<rect width="15.7246" height="15.7246" transform="translate(304.444 84.2994) rotate(13.943)" fill="#FFCA9A"/>
<rect width="15.7246" height="15.7246" transform="translate(319.705 88.0884) rotate(13.943)" fill="#FFCA9A"/>
<rect width="15.7246" height="15.7246" transform="translate(315.916 103.35) rotate(13.943)" fill="#FF842B"/>
<rect width="15.7246" height="15.7246" transform="translate(350.228 95.6661) rotate(13.943)" fill="#FFCA9A"/>
<rect width="15.7246" height="15.7246" transform="translate(334.966 91.8773) rotate(13.943)" fill="#FFCA9A"/>
<rect width="15.7246" height="15.7246" transform="translate(365.489 99.4553) rotate(13.943)" fill="#FFCA9A"/>
<rect width="15.7246" height="15.7246" transform="translate(354.017 80.4049) rotate(13.943)" fill="#FFCA9A"/>
<rect width="15.7246" height="15.7246" transform="translate(270.132 91.9828) rotate(13.943)" fill="#FFCA9A"/>
<rect width="15.7246" height="15.7246" transform="translate(285.394 95.7717) rotate(13.943)" fill="#FFCA9A"/>
<rect width="15.7246" height="15.7246" transform="translate(300.655 99.5607) rotate(13.943)" fill="#FFCA9A"/>
<rect width="15.7246" height="15.7246" transform="translate(331.177 107.139) rotate(13.943)" fill="#FFCA9A"/>
<rect width="15.7246" height="15.7246" transform="translate(346.439 110.928) rotate(13.943)" fill="#FFCA9A"/>
<rect width="15.7246" height="15.7246" transform="translate(361.7 114.717) rotate(13.943)" fill="#FFCA9A"/>
<rect width="15.7246" height="15.7246" transform="translate(266.343 107.244) rotate(13.943)" fill="#FFCA9A"/>
<rect width="15.7246" height="15.7246" transform="translate(281.605 111.033) rotate(13.943)" fill="#FFCA9A"/>
<rect width="15.7246" height="15.7246" transform="translate(296.866 114.822) rotate(13.943)" fill="#FFCA9A"/>
<rect width="15.7246" height="15.7246" transform="translate(327.389 122.4) rotate(13.943)" fill="#FFCA9A"/>
<rect width="15.7246" height="15.7246" transform="translate(342.65 126.189) rotate(13.943)" fill="#FFCA9A"/>
<rect width="15.7246" height="15.7246" transform="translate(357.911 129.978) rotate(13.943)" fill="#FFCA9A"/>
<rect width="15.7246" height="15.7246" transform="translate(262.554 122.505) rotate(13.943)" fill="#FFCA9A"/>
<rect width="15.7246" height="15.7246" transform="translate(277.816 126.294) rotate(13.943)" fill="#FFCA9A"/>
<rect width="15.7246" height="15.7246" transform="translate(293.077 130.083) rotate(13.943)" fill="#FFCA9A"/>
<rect width="15.7246" height="15.7246" transform="translate(323.599 137.661) rotate(13.943)" fill="#FFCA9A"/>
<rect width="15.7246" height="15.7246" transform="translate(338.861 141.45) rotate(13.943)" fill="#FFCA9A"/>
<rect width="15.7246" height="15.7246" transform="translate(354.122 145.239) rotate(13.943)" fill="#FFCA9A"/>
<rect width="15.7246" height="15.7246" transform="translate(258.765 137.767) rotate(13.943)" fill="#FFCA9A"/>
<rect width="15.7246" height="15.7246" transform="translate(274.027 141.556) rotate(13.943)" fill="#FFCA9A"/>
<rect width="15.7246" height="15.7246" transform="translate(289.288 145.345) rotate(13.943)" fill="#FFCA9A"/>
<rect width="15.7246" height="15.7246" transform="translate(304.549 149.134) rotate(13.943)" fill="#FFCA9A"/>
<rect width="15.7246" height="15.7246" transform="translate(319.811 152.922) rotate(13.943)" fill="#FFCA9A"/>
<rect width="15.7246" height="15.7246" transform="translate(335.072 156.712) rotate(13.943)" fill="#FFCA9A"/>
<rect width="15.7246" height="15.7246" transform="translate(350.333 160.5) rotate(13.943)" fill="#FFCA9A"/>
<rect width="15.7246" height="15.7246" transform="translate(254.976 153.028) rotate(13.943)" fill="#FF842B"/>
<rect width="15.7246" height="15.7246" transform="translate(270.238 156.817) rotate(13.943)" fill="#FFCA9A"/>
<rect width="15.7246" height="15.7246" transform="translate(285.499 160.606) rotate(13.943)" fill="#FFCA9A"/>
<rect width="15.7246" height="15.7246" transform="translate(300.76 164.395) rotate(13.943)" fill="#FFCA9A"/>
<rect width="15.7246" height="15.7246" transform="translate(316.022 168.184) rotate(13.943)" fill="#FFCA9A"/>
<rect width="15.7246" height="15.7246" transform="translate(331.283 171.973) rotate(13.943)" fill="#FFCA9A"/>
<rect width="15.7246" height="15.7246" transform="translate(346.544 175.762) rotate(13.943)" fill="#FF842B"/>
<rect width="15.7246" height="15.7246" transform="translate(266.449 172.078) rotate(13.943)" fill="#FF842B"/>
<rect width="15.7246" height="15.7246" transform="translate(281.71 175.867) rotate(13.943)" fill="#FF842B"/>
<rect width="15.7246" height="15.7246" transform="translate(296.971 179.656) rotate(13.943)" fill="#FF842B"/>
<rect width="15.7246" height="15.7246" transform="translate(312.233 183.445) rotate(13.943)" fill="#FF842B"/>
<rect width="15.7246" height="15.7246" transform="translate(327.494 187.234) rotate(13.943)" fill="#FF842B"/>
</g>
<g clip-path="url(#clip3_6_2107)">
<rect width="15.7246" height="15.7246" transform="translate(416.588 95.9397) rotate(13.943)" fill="#FFCA9A"/>
<rect width="15.7246" height="15.7246" transform="translate(401.327 92.1508) rotate(13.943)" fill="#FFCA9A"/>
<rect width="15.7246" height="15.7246" transform="translate(431.849 99.7286) rotate(13.943)" fill="#FFCA9A"/>
<rect width="15.7246" height="15.7246" transform="translate(447.111 103.518) rotate(13.943)" fill="#FFCA9A"/>
<rect width="15.7246" height="15.7246" transform="translate(462.372 107.307) rotate(13.943)" fill="#FFCA9A"/>
<rect width="15.7246" height="15.7246" transform="translate(477.633 111.096) rotate(13.943)" fill="#FFCA9A"/>
<rect width="15.7246" height="15.7246" transform="translate(397.538 107.412) rotate(13.943)" fill="#FFCA9A"/>
<rect width="15.7246" height="15.7246" transform="translate(412.799 111.201) rotate(13.943)" fill="#FFCA9A"/>
<rect width="15.7246" height="15.7246" transform="translate(428.06 114.99) rotate(13.943)" fill="#FFCA9A"/>
<rect width="15.7246" height="15.7246" transform="translate(443.322 118.779) rotate(13.943)" fill="#FFCA9A"/>
<rect width="15.7246" height="15.7246" transform="translate(458.583 122.568) rotate(13.943)" fill="#FFCA9A"/>
<rect width="15.7246" height="15.7246" transform="translate(473.844 126.357) rotate(13.943)" fill="#FFCA9A"/>
<rect width="15.7246" height="15.7246" transform="translate(489.106 130.146) rotate(13.943)" fill="#FFCA9A"/>
<rect width="15.7246" height="15.7246" transform="translate(393.749 122.673) rotate(13.943)" fill="#FFCA9A"/>
<rect width="15.7246" height="15.7246" transform="translate(409.01 126.462) rotate(13.943)" fill="#FFCA9A"/>
<rect width="15.7246" height="15.7246" transform="translate(424.271 130.251) rotate(13.943)" fill="#FFCA9A"/>
<rect width="15.7246" height="15.7246" transform="translate(439.533 134.04) rotate(13.943)" fill="#FF842B"/>
<rect width="15.7246" height="15.7246" transform="translate(454.794 137.829) rotate(13.943)" fill="#FFCA9A"/>
<rect width="15.7246" height="15.7246" transform="translate(470.055 141.618) rotate(13.943)" fill="#FFCA9A"/>
<rect width="15.7246" height="15.7246" transform="translate(485.317 145.407) rotate(13.943)" fill="#FFCA9A"/>
<rect width="15.7246" height="15.7246" transform="translate(389.96 137.935) rotate(13.943)" fill="#FFCA9A"/>
<rect width="15.7246" height="15.7246" transform="translate(405.221 141.724) rotate(13.943)" fill="#FFCA9A"/>
<rect width="15.7246" height="15.7246" transform="translate(420.483 145.513) rotate(13.943)" fill="#FFCA9A"/>
<rect width="15.7246" height="15.7246" transform="translate(451.005 153.091) rotate(13.943)" fill="#FFCA9A"/>
<rect width="15.7246" height="15.7246" transform="translate(466.266 156.88) rotate(13.943)" fill="#FFCA9A"/>
<rect width="15.7246" height="15.7246" transform="translate(481.528 160.668) rotate(13.943)" fill="#FFCA9A"/>
<rect width="15.7246" height="15.7246" transform="translate(386.171 153.196) rotate(13.943)" fill="#FFCA9A"/>
<rect width="15.7246" height="15.7246" transform="translate(401.432 156.985) rotate(13.943)" fill="#FFCA9A"/>
<rect width="15.7246" height="15.7246" transform="translate(416.694 160.774) rotate(13.943)" fill="#FFCA9A"/>
<rect width="15.7246" height="15.7246" transform="translate(447.216 168.352) rotate(13.943)" fill="#FFCA9A"/>
<rect width="15.7246" height="15.7246" transform="translate(462.478 172.141) rotate(13.943)" fill="#FFCA9A"/>
<rect width="15.7246" height="15.7246" transform="translate(477.739 175.93) rotate(13.943)" fill="#FFCA9A"/>
<rect width="15.7246" height="15.7246" transform="translate(382.382 168.457) rotate(13.943)" fill="#FFCA9A"/>
<rect width="15.7246" height="15.7246" transform="translate(397.643 172.246) rotate(13.943)" fill="#FFCA9A"/>
<rect width="15.7246" height="15.7246" transform="translate(412.905 176.035) rotate(13.943)" fill="#FFCA9A"/>
<rect width="15.7246" height="15.7246" transform="translate(428.166 179.824) rotate(13.943)" fill="#FFCA9A"/>
<rect width="15.7246" height="15.7246" transform="translate(443.427 183.613) rotate(13.943)" fill="#FFCA9A"/>
<rect width="15.7246" height="15.7246" transform="translate(458.688 187.402) rotate(13.943)" fill="#FFCA9A"/>
<rect width="15.7246" height="15.7246" transform="translate(473.95 191.191) rotate(13.943)" fill="#FFCA9A"/>
<rect width="15.7246" height="15.7246" transform="translate(378.593 183.719) rotate(13.943)" fill="#FFCA9A"/>
<rect width="15.7246" height="15.7246" transform="translate(393.854 187.508) rotate(13.943)" fill="#FFCA9A"/>
<rect width="15.7246" height="15.7246" transform="translate(409.116 191.297) rotate(13.943)" fill="#FFCA9A"/>
<rect width="15.7246" height="15.7246" transform="translate(424.377 195.085) rotate(13.943)" fill="#FFCA9A"/>
<rect width="15.7246" height="15.7246" transform="translate(439.638 198.875) rotate(13.943)" fill="#FFCA9A"/>
<rect width="15.7246" height="15.7246" transform="translate(454.9 202.664) rotate(13.943)" fill="#FFCA9A"/>
<rect width="15.7246" height="15.7246" transform="translate(470.161 206.452) rotate(13.943)" fill="#FF842B"/>
<rect width="15.7246" height="15.7246" transform="translate(390.065 202.769) rotate(13.943)" fill="#FF842B"/>
<rect width="15.7246" height="15.7246" transform="translate(374.804 198.98) rotate(13.943)" fill="#FF842B"/>
<rect width="15.7246" height="15.7246" transform="translate(405.327 206.558) rotate(13.943)" fill="#FF842B"/>
<rect width="15.7246" height="15.7246" transform="translate(420.588 210.347) rotate(13.943)" fill="#FF842B"/>
<rect width="15.7246" height="15.7246" transform="translate(435.849 214.136) rotate(13.943)" fill="#FF842B"/>
<rect width="15.7246" height="15.7246" transform="translate(451.111 217.925) rotate(13.943)" fill="#FF842B"/>
</g>
<g clip-path="url(#clip4_6_2107)">
<rect width="15.7246" height="15.7246" transform="translate(570.727 134.208) rotate(13.943)" fill="#FFCA9A"/>
<rect width="15.7246" height="15.7246" transform="translate(555.466 130.419) rotate(13.943)" fill="#FFCA9A"/>
<rect width="15.7246" height="15.7246" transform="translate(585.989 137.997) rotate(13.943)" fill="#FFCA9A"/>
<rect width="15.7246" height="15.7246" transform="translate(601.25 141.786) rotate(13.943)" fill="#FFCA9A"/>
<rect width="15.7246" height="15.7246" transform="translate(551.677 145.681) rotate(13.943)" fill="#FFCA9A"/>
<rect width="15.7246" height="15.7246" transform="translate(566.938 149.47) rotate(13.943)" fill="#FFCA9A"/>
<rect width="15.7246" height="15.7246" transform="translate(582.2 153.259) rotate(13.943)" fill="#FFCA9A"/>
<rect width="15.7246" height="15.7246" transform="translate(597.461 157.047) rotate(13.943)" fill="#FFCA9A"/>
<rect width="15.7246" height="15.7246" transform="translate(547.888 160.942) rotate(13.943)" fill="#FFCA9A"/>
<rect width="15.7246" height="15.7246" transform="translate(563.149 164.731) rotate(13.943)" fill="#FFCA9A"/>
<rect width="15.7246" height="15.7246" transform="translate(578.411 168.52) rotate(13.943)" fill="#FFCA9A"/>
<rect width="15.7246" height="15.7246" transform="translate(593.672 172.309) rotate(13.943)" fill="#FFCA9A"/>
<rect width="15.7246" height="15.7246" transform="translate(544.099 176.203) rotate(13.943)" fill="#FF842B"/>
<rect width="15.7246" height="15.7246" transform="translate(559.36 179.992) rotate(13.943)" fill="#FFCA9A"/>
<rect width="15.7246" height="15.7246" transform="translate(574.622 183.781) rotate(13.943)" fill="#FFCA9A"/>
<rect width="15.7246" height="15.7246" transform="translate(589.883 187.57) rotate(13.943)" fill="#FF842B"/>
<rect width="15.7246" height="15.7246" transform="translate(555.572 195.254) rotate(13.943)" fill="#FF842B"/>
<rect width="15.7246" height="15.7246" transform="translate(570.833 199.043) rotate(13.943)" fill="#FF842B"/>
<rect width="15.7246" height="15.7246" transform="translate(547.994 225.776) rotate(13.943)" fill="#FFCA9A"/>
<rect width="15.7246" height="15.7246" transform="translate(563.255 229.565) rotate(13.943)" fill="#FFCA9A"/>
<rect width="15.7246" height="15.7246" transform="translate(544.205 241.038) rotate(13.943)" fill="#FF842B"/>
<rect width="15.7246" height="15.7246" transform="translate(559.466 244.827) rotate(13.943)" fill="#FF842B"/>
</g>
<defs>
<clipPath id="clip0_6_2107">
<rect width="125.797" height="125.797" fill="white" transform="translate(30.4768 0.0789795) rotate(13.943)"/>
</clipPath>
<clipPath id="clip1_6_2107">
<rect width="125.797" height="125.797" fill="white" transform="translate(154.094 30.7697) rotate(13.943)"/>
</clipPath>
<clipPath id="clip2_6_2107">
<rect width="125.797" height="125.797" fill="white" transform="translate(277.71 61.4601) rotate(13.943)"/>
</clipPath>
<clipPath id="clip3_6_2107">
<rect width="125.797" height="125.797" fill="white" transform="translate(401.327 92.1508) rotate(13.943)"/>
</clipPath>
<clipPath id="clip4_6_2107">
<rect width="125.797" height="125.797" fill="white" transform="translate(524.943 122.841) rotate(13.943)"/>
</clipPath>
</defs>
</svg>
