<svg width="24" height="24" viewBox="0 0 24 24" fill="none" xmlns="http://www.w3.org/2000/svg">
<path fill-rule="evenodd" clip-rule="evenodd" d="M5 14V8H6V7H7V6H8V5H15V6H16V7H17V8H18V14H17V15H16V17H14V18V20H13V18H12V20H11V18H10V20H9V18V17H7V15H6V14H5ZM11 15H10.5H10V16H10.5H11.5H12.5H13V15H12.5H12V14.5V14H11V14.5V15ZM8 11V10H9V9.01819H10V10V12V13H7V11H8ZM16 13H13V12V10V9.01819H14V10H15V11H16V13Z" fill="white"/>
<path d="M7.99996 4L7.99999 5H6.99999L7.00003 6H6.00003V6.99999L5 7L5 8H4V14H5L5 15H6L6.00003 17H7.00003L7 18H7.99997V20H8.99997L9 17L7.00003 17V15L6 15V14L5 14V8L6 8L6.00003 6.99999H7.00003V6L7.99999 6V5H15V6L16 6V6.99999H17L17 8L18 8V14L17 14V15L16 15V17L14 17V20H15V18H16V17H17L17 15H18L18 14H19V8H18L18 7L17 6.99999V6H16V5H15L15 4H7.99996Z" fill="black"/>
<path d="M10 18H11V20H10V18Z" fill="black"/>
<path d="M12 18H13V20H12V18Z" fill="black"/>
<path d="M7.99997 10L8.99994 10V9H9.99994L10 13H7L6.99994 11H7.99994L7.99997 12V10Z" fill="black"/>
<path d="M15 10L13.9999 10V9H12.9999L13 13H16V11H15L15 10Z" fill="black"/>
<path d="M10 15H11L10.9999 14H11.9999L12 15L12.9999 15V16H10V15Z" fill="black"/>
</svg>
