<svg width="128" height="128" viewBox="0 0 128 128" fill="none" xmlns="http://www.w3.org/2000/svg">
<rect width="128" height="128" rx="16" transform="matrix(-1 0 0 1 128 0)" fill="white"/>
<rect x="71" y="76" width="5" height="5" fill="#0999FF"/>
<rect x="21" y="36" width="50" height="40" fill="#13B0FF"/>
<rect x="61" y="86" width="15" height="10" fill="#13B0FF"/>
<rect x="76" y="81" width="5" height="10" fill="#13B0FF"/>
<rect x="61" y="96" width="15" height="5" fill="#0999FF"/>
<rect x="21" y="56" width="40" height="10" fill="#0999FF"/>
<rect x="86" y="26" width="25" height="25" fill="#13B0FF"/>
<rect x="21" y="26" width="35" height="10" fill="#13B0FF"/>
<rect x="101" y="31" width="10" height="5" fill="#0999FF"/>
<rect x="91" y="41" width="5" height="10" fill="#0999FF"/>
<rect x="81" y="41" width="5" height="5" fill="#0999FF"/>
<rect x="86" y="46" width="5" height="10" fill="#0999FF"/>
<rect x="16" y="46" width="5" height="5" fill="#13B0FF"/>
<rect x="56" y="41" width="5" height="10" fill="#0999FF"/>
<rect x="101" y="36" width="10" height="15" fill="#0999FF"/>
<rect x="96" y="36" width="5" height="5" fill="#0999FF"/>
<rect x="16" y="51" width="5" height="5" fill="#0999FF"/>
<rect x="61" y="71" width="5" height="5" fill="#0999FF"/>
<rect x="66" y="66" width="5" height="5" fill="#0999FF"/>
<rect x="41" y="26" width="5" height="5" fill="#0999FF"/>
<rect x="51" y="51" width="10" height="5" fill="#0999FF"/>
<rect x="51" y="31" width="5" height="5" fill="#0999FF"/>
<rect x="36" y="71" width="10" height="5" fill="#FDFE9E"/>
<rect x="41" y="76" width="25" height="10" fill="#FDFE9E"/>
<rect x="76" y="56" width="10" height="25" fill="#8C500A"/>
<rect x="66" y="41" width="15" height="20" fill="#976A0D"/>
<rect x="41" y="51" width="5" height="10" fill="#8C500A"/>
<rect x="61" y="36" width="5" height="10" fill="#8C500A"/>
<rect x="46" y="81" width="5" height="5" fill="#8C500A"/>
<rect x="66" y="81" width="5" height="5" fill="#8C500A"/>
<rect x="56" y="86" width="10" height="5" fill="#8C500A"/>
<rect x="76" y="46" width="5" height="5" fill="#8C500A"/>
<rect x="71" y="41" width="5" height="5" fill="#8C500A"/>
<rect x="16" y="41" width="5" height="5" fill="#8C500A"/>
<rect x="71" y="61" width="5" height="15" fill="white"/>
<rect x="36" y="81" width="5" height="5" fill="white"/>
<rect x="61" y="46" width="5" height="10" fill="white"/>
<rect x="66" y="56" width="5" height="5" fill="white"/>
<rect x="36" y="46" width="5" height="5" fill="white"/>
<rect x="56" y="36" width="5" height="5" fill="black"/>
<rect x="66" y="71" width="5" height="5" fill="black"/>
<rect x="86" y="26" width="5" height="15" fill="black"/>
<rect x="106" y="46" width="5" height="5" fill="black"/>
<rect x="106" y="26" width="5" height="5" fill="black"/>
<rect x="101" y="36" width="5" height="5" fill="black"/>
<rect x="111" y="31" width="5" height="15" fill="black"/>
<rect x="101" y="51" width="5" height="5" fill="black"/>
<rect x="96" y="41" width="5" height="15" fill="black"/>
<rect x="86" y="56" width="5" height="25" fill="black"/>
<rect x="81" y="81" width="5" height="10" fill="black"/>
<rect x="46" y="71" width="5" height="5" fill="black"/>
<rect x="76" y="91" width="5" height="10" fill="black"/>
<rect x="46" y="71" width="5" height="5" fill="black"/>
<rect x="51" y="61" width="10" height="5" fill="black"/>
<rect x="41" y="46" width="5" height="5" fill="black"/>
<rect x="36" y="51" width="5" height="10" fill="black"/>
<rect x="56" y="31" width="10" height="5" fill="black"/>
<rect x="46" y="26" width="10" height="5" fill="black"/>
<rect x="16" y="31" width="5" height="10" fill="black"/>
<rect x="21" y="26" width="5" height="5" fill="black"/>
<rect x="11" y="41" width="5" height="15" fill="black"/>
<rect x="16" y="56" width="5" height="5" fill="black"/>
<rect x="21" y="61" width="10" height="5" fill="black"/>
<rect x="31" y="71" width="5" height="20" fill="black"/>
<rect x="66" y="36" width="20" height="5" fill="black"/>
<rect x="41" y="81" width="5" height="5" fill="black"/>
<rect x="91" y="21" width="15" height="5" fill="black"/>
<rect x="36" y="76" width="5" height="5" fill="black"/>
<rect x="26" y="71" width="5" height="5" fill="black"/>
<rect x="56" y="96" width="5" height="5" fill="black"/>
<rect x="31" y="66" width="20" height="5" fill="black"/>
<rect x="26" y="21" width="20" height="5" fill="black"/>
<rect x="56" y="91" width="10" height="5" fill="black"/>
<rect x="56" y="101" width="25" height="5" fill="black"/>
<rect x="51" y="76" width="20" height="5" fill="black"/>
<rect x="56" y="66" width="5" height="5" fill="black"/>
<rect x="61" y="56" width="5" height="5" fill="black"/>
<rect x="71" y="81" width="5" height="5" fill="#13B0FF"/>
<rect x="76" y="41" width="5" height="5" fill="black"/>
<rect x="71" y="81" width="5" height="15" fill="black"/>
<rect x="81" y="46" width="5" height="10" fill="black"/>
<rect x="36" y="86" width="20" height="5" fill="black"/>
<rect x="91" y="51" width="5" height="10" fill="black"/>
<rect x="21" y="66" width="5" height="10" fill="black"/>
<rect x="36" y="86" width="20" height="5" fill="black"/>
</svg>
